
<svg width="200" height="200" viewBox="0 0 200 200" xmlns="http://www.w3.org/2000/svg">
  <!-- Background square with rounded corners -->
  <rect x="10" y="10" width="180" height="180" rx="20" ry="20" fill="#6c4a4a" class="base" />
  
  <!-- Radio body -->
  <rect x="30" y="40" width="140" height="120" rx="10" ry="10" fill="#e6e0d4" class="radio-body" />
  
  <!-- Radio controls -->
  <circle cx="60" cy="80" r="15" fill="#8b5d5d" class="tuner" />
  <circle cx="60" cy="80" r="10" fill="#e6e0d4" class="tuner-inner" />
  <circle cx="60" cy="80" r="2" fill="#6c4a4a" class="tuner-center" />
  
  <!-- Volume knob -->
  <circle cx="130" cy="80" r="10" fill="#8b5d5d" class="volume" />
  <rect x="128" y="73" width="4" height="14" rx="2" ry="2" fill="#e6e0d4" class="volume-line" />
  
  <!-- Speaker grille -->
  <rect x="50" y="110" width="100" height="40" rx="5" ry="5" fill="#8b5d5d" class="speaker" />
  
  <!-- Speaker holes -->
  <circle cx="70" cy="120" r="3" fill="#6c4a4a" class="hole" />
  <circle cx="90" cy="120" r="3" fill="#6c4a4a" class="hole" />
  <circle cx="110" cy="120" r="3" fill="#6c4a4a" class="hole" />
  <circle cx="130" cy="120" r="3" fill="#6c4a4a" class="hole" />
  
  <circle cx="70" cy="130" r="3" fill="#6c4a4a" class="hole" />
  <circle cx="90" cy="130" r="3" fill="#6c4a4a" class="hole" />
  <circle cx="110" cy="130" r="3" fill="#6c4a4a" class="hole" />
  <circle cx="130" cy="130" r="3" fill="#6c4a4a" class="hole" />
  
  <circle cx="70" cy="140" r="3" fill="#6c4a4a" class="hole" />
  <circle cx="90" cy="140" r="3" fill="#6c4a4a" class="hole" />
  <circle cx="110" cy="140" r="3" fill="#6c4a4a" class="hole" />
  <circle cx="130" cy="140" r="3" fill="#6c4a4a" class="hole" />
  
  <!-- Antenna -->
  <line x1="100" y1="40" x2="100" y2="10" stroke="#8b5d5d" stroke-width="4" class="antenna" />
  <circle cx="100" cy="10" r="5" fill="#8b5d5d" class="antenna-top" />
  
  <!-- Radio waves (animated) -->
  <circle cx="100" cy="10" r="10" fill="transparent" stroke="#e6e0d4" stroke-width="2" class="wave wave1" />
  <circle cx="100" cy="10" r="20" fill="transparent" stroke="#e6e0d4" stroke-width="2" class="wave wave2" />
  <circle cx="100" cy="10" r="30" fill="transparent" stroke="#e6e0d4" stroke-width="2" class="wave wave3" />
</svg>
